<svg width="12" height="13" viewBox="0 0 12 13" fill="none" xmlns="http://www.w3.org/2000/svg">
<path d="M11.8831 12.5336H10.6099V11.2074C10.6099 10.6727 10.3975 10.16 10.0194 9.78194C9.6414 9.40389 9.12865 9.1915 8.59401 9.1915H3.28906C2.75442 9.1915 2.24167 9.40389 1.86362 9.78194C1.48557 10.16 1.27319 10.6727 1.27319 11.2074V12.5336H0V11.2074C0 10.3351 0.346525 9.49848 0.963345 8.88166C1.58016 8.26484 2.41675 7.91832 3.28906 7.91832H8.59401C9.46632 7.91832 10.3029 8.26484 10.9197 8.88166C11.5365 9.49848 11.8831 10.3351 11.8831 11.2074V12.5336Z" fill="black"/>
<path d="M5.94047 0.226151C6.56329 0.226151 7.17212 0.410837 7.68997 0.756855C8.20782 1.10287 8.61144 1.59468 8.84978 2.17009C9.08812 2.7455 9.15049 3.37866 9.02898 3.98951C8.90747 4.60035 8.60756 5.16146 8.16716 5.60185C7.72676 6.04225 7.16566 6.34216 6.55482 6.46367C5.94397 6.58518 5.31081 6.52281 4.7354 6.28447C4.15999 6.04613 3.66818 5.64251 3.32216 5.12466C2.97615 4.60681 2.79146 3.99798 2.79146 3.37516C2.79258 2.54034 3.12471 1.74003 3.71503 1.14972C4.30534 0.559404 5.10565 0.227273 5.94047 0.226151ZM5.94047 5.25205C6.31143 5.25205 6.67406 5.14206 6.98252 4.93599C7.29097 4.72992 7.5314 4.43702 7.67341 4.09432C7.81542 3.75162 7.85263 3.3745 7.78033 3.01066C7.70804 2.64681 7.52949 2.31257 7.26726 2.05019C7.00503 1.78781 6.67088 1.60907 6.30708 1.53657C5.94327 1.46407 5.56614 1.50107 5.22336 1.64288C4.88058 1.7847 4.58754 2.02496 4.3813 2.3333C4.17505 2.64164 4.06486 3.00421 4.06465 3.37516C4.06493 3.87268 4.26261 4.34975 4.61431 4.70164C4.966 5.05353 5.44296 5.25149 5.94047 5.25205Z" fill="black"/>
</svg>
