<svg width="14" height="15" viewBox="0 0 14 15" fill="none" xmlns="http://www.w3.org/2000/svg">
<path d="M13.8743 7.72616C13.8743 7.77399 13.8649 7.82136 13.8466 7.86555C13.8283 7.90974 13.8015 7.94989 13.7676 7.98371C13.7338 8.01753 13.6937 8.04436 13.6495 8.06266C13.6053 8.08096 13.5579 8.09039 13.5101 8.09039L0.398143 8.09039C0.301546 8.09039 0.208905 8.05201 0.1406 7.98371C0.0722952 7.9154 0.033922 7.82276 0.033922 7.72617C0.033922 7.62957 0.0722952 7.53693 0.1406 7.46862C0.208905 7.40032 0.301546 7.36194 0.398143 7.36194L13.5101 7.36194C13.6067 7.36194 13.6993 7.40032 13.7676 7.46862C13.836 7.53693 13.8743 7.62957 13.8743 7.72616Z" fill="black"/>
<path d="M7.31835 1.17018L7.31834 14.2821C7.31834 14.3787 7.27997 14.4714 7.21167 14.5397C7.14336 14.608 7.05072 14.6464 6.95412 14.6464C6.85753 14.6464 6.76488 14.608 6.69658 14.5397C6.62828 14.4714 6.5899 14.3787 6.5899 14.2821L6.5899 1.17018C6.5899 1.12235 6.59932 1.07499 6.61763 1.0308C6.63593 0.986613 6.66276 0.946462 6.69658 0.912641C6.7304 0.87882 6.77055 0.851992 6.81474 0.833688C6.85893 0.815384 6.90629 0.805963 6.95412 0.805963C7.05072 0.805963 7.14336 0.844337 7.21167 0.912641C7.27997 0.980946 7.31835 1.07359 7.31835 1.17018Z" fill="black"/>
</svg>
