<svg width="17" height="16" viewBox="0 0 17 16" fill="none" xmlns="http://www.w3.org/2000/svg">
<path d="M16.1467 7.8042C16.1467 7.85681 16.1364 7.90891 16.1162 7.95752C16.0961 8.00613 16.0666 8.05029 16.0294 8.0875C15.9922 8.1247 15.948 8.15421 15.8994 8.17434C15.8508 8.19448 15.7987 8.20484 15.7461 8.20484L1.32294 8.20484C1.21669 8.20484 1.11478 8.16263 1.03965 8.0875C0.96451 8.01236 0.9223 7.91046 0.9223 7.8042C0.9223 7.69794 0.96451 7.59604 1.03965 7.5209C1.11478 7.44577 1.21669 7.40356 1.32294 7.40356L15.7461 7.40355C15.8524 7.40355 15.9543 7.44577 16.0294 7.5209C16.1045 7.59604 16.1467 7.69794 16.1467 7.8042Z" fill="black"/>
<path d="M8.93517 0.592619L8.93516 15.0158C8.93516 15.122 8.89295 15.2239 8.81782 15.2991C8.74268 15.3742 8.64078 15.4164 8.53452 15.4164C8.42826 15.4164 8.32636 15.3742 8.25122 15.2991C8.17609 15.2239 8.13388 15.122 8.13388 15.0158L8.13388 0.592619C8.13388 0.540006 8.14424 0.487908 8.16438 0.4393C8.18451 0.390692 8.21402 0.346525 8.25123 0.309322C8.28843 0.272119 8.3326 0.242607 8.3812 0.222473C8.42981 0.202339 8.48191 0.191976 8.53452 0.191976C8.64078 0.191976 8.74268 0.234187 8.81782 0.309322C8.89295 0.384458 8.93517 0.486362 8.93517 0.592619Z" fill="black"/>
</svg>
